<svg width="36" height="16" viewBox="0 0 36 16" fill="none" xmlns="http://www.w3.org/2000/svg">
<path d="M1 6.83887C0.447715 6.83887 0 7.28658 0 7.83887C0 8.39115 0.447715 8.83887 1 8.83887V6.83887ZM35.0458 8.54597C35.4364 8.15545 35.4364 7.52228 35.0458 7.13176L28.6819 0.767799C28.2914 0.377275 27.6582 0.377275 27.2677 0.767799C26.8771 1.15832 26.8771 1.79149 27.2677 2.18201L32.9245 7.83887L27.2677 13.4957C26.8771 13.8862 26.8771 14.5194 27.2677 14.9099C27.6582 15.3005 28.2914 15.3005 28.6819 14.9099L35.0458 8.54597ZM1 8.83887H34.3387V6.83887H1V8.83887Z" fill="white"/>
</svg>
