<svg width="93" height="93" viewBox="0 0 93 93" fill="none" xmlns="http://www.w3.org/2000/svg">
<path d="M90.9788 7.48126C92.5409 5.91916 92.5409 3.3865 90.9788 1.8244C89.4167 0.262308 86.8841 0.262308 85.322 1.8244L90.9788 7.48126ZM0.625907 88.1773C0.625907 90.3865 2.41677 92.1773 4.62591 92.1773L40.6259 92.1773C42.835 92.1773 44.6259 90.3865 44.6259 88.1773C44.6259 85.9682 42.835 84.1773 40.6259 84.1773H8.62591V52.1773C8.62591 49.9682 6.83505 48.1773 4.62591 48.1773C2.41677 48.1773 0.625907 49.9682 0.625907 52.1773L0.625907 88.1773ZM85.322 1.8244L1.79748 85.3489L7.45433 91.0057L90.9788 7.48126L85.322 1.8244Z" fill="#2C1A1A"/>
</svg>
