<svg width="114" height="114" viewBox="0 0 114 114" fill="none" xmlns="http://www.w3.org/2000/svg">
<path d="M91.5326 25.3176C85.2151 22.3726 78.3751 20.2351 71.2501 19.0001C71.1248 19.0019 71.0053 19.0531 70.9176 19.1426C70.0626 20.7101 69.0651 22.7526 68.4001 24.3201C60.8428 23.1808 53.1574 23.1808 45.6001 24.3201C44.9351 22.7051 43.9376 20.7101 43.0351 19.1426C42.9876 19.0476 42.8451 19.0001 42.7026 19.0001C35.5776 20.2351 28.7851 22.3726 22.4201 25.3176C22.3726 25.3176 22.3251 25.3651 22.2776 25.4126C9.35757 44.7451 5.79507 63.5551 7.55257 82.1751C7.55257 82.2701 7.60007 82.3651 7.69507 82.4126C16.2451 88.6826 24.4626 92.4826 32.5851 95.0001C32.7276 95.0476 32.8701 95.0001 32.9176 94.9051C34.8176 92.2926 36.5276 89.5376 38.0001 86.6401C38.0951 86.4501 38.0001 86.2601 37.8101 86.2126C35.1026 85.1676 32.5376 83.9326 30.0201 82.5076C29.8301 82.4126 29.8301 82.1276 29.9726 81.9851C30.4951 81.6051 31.0176 81.1776 31.5401 80.7976C31.6351 80.7026 31.7776 80.7026 31.8726 80.7501C48.2126 88.2076 65.8351 88.2076 81.9851 80.7501C82.0801 80.7026 82.2226 80.7026 82.3176 80.7976C82.8401 81.2251 83.3626 81.6051 83.8851 82.0326C84.0751 82.1751 84.0751 82.4601 83.8376 82.5551C81.3676 84.0276 78.7551 85.2151 76.0476 86.2601C75.8576 86.3076 75.8101 86.5451 75.8576 86.6876C77.3776 89.5851 79.0876 92.3401 80.9401 94.9526C81.0826 95.0001 81.2251 95.0476 81.3676 95.0001C89.5376 92.4826 97.7551 88.6826 106.305 82.4126C106.4 82.3651 106.448 82.2701 106.448 82.1751C108.538 60.6576 102.98 41.9901 91.7226 25.4126C91.6751 25.3651 91.6276 25.3176 91.5326 25.3176ZM40.4701 70.8226C35.5776 70.8226 31.4926 66.3101 31.4926 60.7526C31.4926 55.1951 35.4826 50.6826 40.4701 50.6826C45.5051 50.6826 49.4951 55.2426 49.4476 60.7526C49.4476 66.3101 45.4576 70.8226 40.4701 70.8226ZM73.5776 70.8226C68.6851 70.8226 64.6001 66.3101 64.6001 60.7526C64.6001 55.1951 68.5901 50.6826 73.5776 50.6826C78.6126 50.6826 82.6026 55.2426 82.5551 60.7526C82.5551 66.3101 78.6126 70.8226 73.5776 70.8226Z" fill="#FEFFEC"/>
</svg>
