<svg width="37" height="29" viewBox="0 0 37 29" fill="none" xmlns="http://www.w3.org/2000/svg">
<path d="M31.3799 2.91396C29.0761 1.83998 26.5817 1.06048 23.9834 0.610107C23.9377 0.610758 23.8941 0.629437 23.8621 0.662074C23.5503 1.23371 23.1865 1.97856 22.944 2.55019C20.188 2.13472 17.3854 2.13472 14.6294 2.55019C14.3869 1.96124 14.0231 1.23371 13.694 0.662074C13.6767 0.62743 13.6247 0.610107 13.5727 0.610107C10.9744 1.06048 8.49731 1.83998 6.17613 2.91396C6.15881 2.91396 6.14149 2.93128 6.12417 2.94861C1.41253 9.99874 0.11336 16.8583 0.754282 23.6486C0.754282 23.6833 0.771604 23.7179 0.806249 23.7353C3.92425 26.0218 6.92099 27.4076 9.88309 28.3256C9.93505 28.343 9.98702 28.3256 10.0043 28.291C10.6972 27.3383 11.3208 26.3336 11.8578 25.2769C11.8925 25.2076 11.8578 25.1384 11.7885 25.121C10.8012 24.7399 9.86576 24.2896 8.94769 23.7699C8.8784 23.7353 8.8784 23.6313 8.93036 23.5794C9.12091 23.4408 9.31145 23.2849 9.502 23.1463C9.53664 23.1117 9.58861 23.1117 9.62325 23.129C15.5821 25.8486 22.0086 25.8486 27.8982 23.129C27.9328 23.1117 27.9848 23.1117 28.0194 23.1463C28.21 23.3022 28.4005 23.4408 28.5911 23.5967C28.6604 23.6486 28.6604 23.7526 28.5737 23.7872C27.673 24.3242 26.7203 24.7573 25.7329 25.1384C25.6636 25.1557 25.6463 25.2423 25.6636 25.2943C26.2179 26.3509 26.8415 27.3556 27.5171 28.3083C27.5691 28.3256 27.621 28.343 27.673 28.3256C30.6524 27.4076 33.6492 26.0218 36.7672 23.7353C36.8018 23.7179 36.8191 23.6833 36.8191 23.6486C37.5813 15.8017 35.5546 8.99406 31.4492 2.94861C31.4319 2.93128 31.4146 2.91396 31.3799 2.91396ZM12.7586 19.5086C10.9744 19.5086 9.48468 17.863 9.48468 15.8363C9.48468 13.8096 10.9397 12.164 12.7586 12.164C14.5947 12.164 16.0498 13.827 16.0325 15.8363C16.0325 17.863 14.5774 19.5086 12.7586 19.5086ZM24.8322 19.5086C23.048 19.5086 21.5583 17.863 21.5583 15.8363C21.5583 13.8096 23.0133 12.164 24.8322 12.164C26.6683 12.164 28.1234 13.827 28.106 15.8363C28.106 17.863 26.6683 19.5086 24.8322 19.5086Z" fill="#FEFFEC"/>
</svg>
