<svg width="35" height="34" viewBox="0 0 35 34" fill="none" xmlns="http://www.w3.org/2000/svg">
<path d="M17.6409 0.881348C15.4341 0.881348 13.249 1.31599 11.2103 2.16047C9.17152 3.00495 7.31907 4.24272 5.75868 5.80311C2.60732 8.95446 0.836914 13.2286 0.836914 17.6853C0.836914 25.1126 5.65965 31.4141 12.3308 33.649C13.171 33.7835 13.4399 33.2626 13.4399 32.8088V29.969C8.78518 30.9772 7.79375 27.7172 7.79375 27.7172C7.02077 25.768 5.92851 25.2471 5.92851 25.2471C4.39935 24.2052 6.04614 24.2388 6.04614 24.2388C7.72653 24.3565 8.61714 25.9696 8.61714 25.9696C10.0791 28.5238 12.5493 27.7677 13.5071 27.3644C13.6583 26.2721 14.0952 25.5327 14.5657 25.1126C10.8353 24.6925 6.91994 23.2474 6.91994 16.8451C6.91994 14.9799 7.55849 13.4843 8.65075 12.2912C8.48271 11.8711 7.89457 10.1235 8.81879 7.85499C8.81879 7.85499 10.2303 7.40128 13.4399 9.56899C14.7674 9.1993 16.2125 9.01446 17.6409 9.01446C19.0692 9.01446 20.5143 9.1993 21.8418 9.56899C25.0514 7.40128 26.4629 7.85499 26.4629 7.85499C27.3871 10.1235 26.799 11.8711 26.631 12.2912C27.7232 13.4843 28.3618 14.9799 28.3618 16.8451C28.3618 23.2642 24.4297 24.6757 20.6824 25.0958C21.2873 25.6168 21.8418 26.6418 21.8418 28.2046V32.8088C21.8418 33.2626 22.1107 33.8003 22.9677 33.649C29.6389 31.3973 34.4448 25.1126 34.4448 17.6853C34.4448 15.4786 34.0102 13.2935 33.1657 11.2547C32.3212 9.21595 31.0834 7.3635 29.523 5.80311C27.9627 4.24272 26.1102 3.00495 24.0715 2.16047C22.0327 1.31599 19.8476 0.881348 17.6409 0.881348Z" fill="#FEFFEC"/>
</svg>
