<svg width="29" height="29" viewBox="0 0 29 29" fill="none" xmlns="http://www.w3.org/2000/svg">
<path d="M15.5598 0.603027C17.1324 0.607221 17.9307 0.615609 18.6198 0.63518L18.891 0.644965C19.2042 0.656149 19.5131 0.670128 19.8864 0.686903C21.3738 0.7568 22.3887 0.991653 23.2792 1.33694C24.2018 1.69202 24.979 2.17291 25.7563 2.94876C26.4674 3.64735 27.0175 4.49274 27.3681 5.42589C27.7134 6.31638 27.9483 7.33128 28.0182 8.82008C28.0349 9.19193 28.0489 9.50087 28.0601 9.8154L28.0685 10.0866C28.0894 10.7744 28.0978 11.5726 28.1006 13.1453L28.102 14.1881V16.0194C28.1054 17.0391 28.0947 18.0587 28.0699 19.0781L28.0615 19.3493C28.0503 19.6638 28.0363 19.9728 28.0195 20.3446C27.9497 21.8334 27.712 22.8469 27.3681 23.7388C27.0175 24.672 26.4674 25.5174 25.7563 26.216C25.0577 26.9271 24.2123 27.4771 23.2792 27.8278C22.3887 28.1731 21.3738 28.4079 19.8864 28.4778L18.891 28.5197L18.6198 28.5281C17.9307 28.5477 17.1324 28.5575 15.5598 28.5603L14.5169 28.5617H12.687C11.6669 28.5653 10.6468 28.5546 9.62695 28.5295L9.35575 28.5211C9.02389 28.5086 8.69211 28.4941 8.36042 28.4778C6.87302 28.4079 5.85812 28.1731 4.96624 27.8278C4.03358 27.477 3.18869 26.9269 2.4905 26.216C1.77888 25.5175 1.22832 24.6721 0.877288 23.7388C0.531999 22.8483 0.297146 21.8334 0.227249 20.3446L0.185311 19.3493L0.178322 19.0781C0.152552 18.0588 0.140902 17.0391 0.143373 16.0194V13.1453C0.139504 12.1256 0.149757 11.106 0.174128 10.0866L0.183913 9.8154C0.195097 9.50087 0.209076 9.19193 0.225851 8.82008C0.295748 7.33128 0.530601 6.31778 0.87589 5.42589C1.22774 4.49235 1.77927 3.64694 2.4919 2.94876C3.18968 2.23798 4.03408 1.68793 4.96624 1.33694C5.85812 0.991653 6.87162 0.7568 8.36042 0.686903C8.73227 0.670128 9.04261 0.656149 9.35575 0.644965L9.62695 0.636578C10.6463 0.61174 11.666 0.601022 12.6856 0.604425L15.5598 0.603027ZM14.1227 7.59269C12.2689 7.59269 10.4911 8.3291 9.18026 9.63992C7.86945 10.9507 7.13304 12.7286 7.13304 14.5824C7.13304 16.4361 7.86945 18.214 9.18026 19.5248C10.4911 20.8356 12.2689 21.572 14.1227 21.572C15.9765 21.572 17.7543 20.8356 19.0651 19.5248C20.376 18.214 21.1124 16.4361 21.1124 14.5824C21.1124 12.7286 20.376 10.9507 19.0651 9.63992C17.7543 8.3291 15.9765 7.59269 14.1227 7.59269ZM14.1227 10.3886C14.6734 10.3885 15.2188 10.4968 15.7276 10.7075C16.2365 10.9182 16.6989 11.227 17.0884 11.6164C17.4779 12.0058 17.7869 12.468 17.9977 12.9768C18.2085 13.4856 18.3171 14.0309 18.3172 14.5817C18.3173 15.1324 18.2089 15.6778 17.9982 16.1866C17.7876 16.6955 17.4787 17.1578 17.0894 17.5473C16.7 17.9368 16.2377 18.2458 15.7289 18.4566C15.2202 18.6675 14.6748 18.7761 14.1241 18.7762C13.0118 18.7762 11.9451 18.3343 11.1586 17.5478C10.3721 16.7613 9.9303 15.6946 9.9303 14.5824C9.9303 13.4701 10.3721 12.4034 11.1586 11.6169C11.9451 10.8304 13.0118 10.3886 14.1241 10.3886M21.4632 5.49579C20.9998 5.49579 20.5553 5.67989 20.2276 6.0076C19.8999 6.3353 19.7158 6.77976 19.7158 7.24321C19.7158 7.70665 19.8999 8.15111 20.2276 8.47882C20.5553 8.80652 20.9998 8.99062 21.4632 8.99062C21.9267 8.99062 22.3711 8.80652 22.6989 8.47882C23.0266 8.15111 23.2107 7.70665 23.2107 7.24321C23.2107 6.77976 23.0266 6.3353 22.6989 6.0076C22.3711 5.67989 21.9267 5.49579 21.4632 5.49579Z" fill="#FEFFEC"/>
</svg>
