<svg width="92" height="92" viewBox="0 0 92 92" fill="none" xmlns="http://www.w3.org/2000/svg">
<path d="M49.9393 7.66663C54.2518 7.67813 56.4406 7.70113 58.3304 7.75479L59.0741 7.78163C59.9328 7.81229 60.7799 7.85063 61.8034 7.89663C65.8821 8.08829 68.6651 8.73229 71.1069 9.67913C73.6369 10.6528 75.7683 11.9715 77.8996 14.099C79.8496 16.0146 81.358 18.3328 82.3194 20.8916C83.2663 23.3335 83.9103 26.1165 84.1019 30.199C84.1479 31.2186 84.1863 32.0658 84.2169 32.9283L84.2399 33.672C84.2974 35.558 84.3204 37.7468 84.3281 42.0593L84.3319 44.919V49.9406C84.3413 52.7367 84.3119 55.5327 84.2438 58.328L84.2208 59.0716C84.1901 59.9341 84.1518 60.7813 84.1058 61.801C83.9141 65.8835 83.2624 68.6626 82.3194 71.1083C81.358 73.6671 79.8496 75.9853 77.8996 77.901C75.984 79.851 73.6658 81.3593 71.1069 82.3208C68.6651 83.2676 65.8821 83.9116 61.8034 84.1033L59.0741 84.2183L58.3304 84.2413C56.4406 84.295 54.2518 84.3218 49.9393 84.3295L47.0796 84.3333H42.0618C39.2644 84.3432 36.4671 84.3138 33.6706 84.2451L32.9269 84.2221C32.0169 84.1877 31.1071 84.1481 30.1976 84.1033C26.1189 83.9116 23.3359 83.2676 20.8903 82.3208C18.3328 81.3588 16.016 79.8505 14.1014 77.901C12.1501 75.9857 10.6404 73.6675 9.67777 71.1083C8.73093 68.6665 8.08693 65.8835 7.89527 61.801L7.78027 59.0716L7.7611 58.328C7.69044 55.5328 7.65849 52.7367 7.66527 49.9406V42.0593C7.65466 39.2633 7.68277 36.4672 7.7496 33.672L7.77643 32.9283C7.8071 32.0658 7.84543 31.2186 7.89143 30.199C8.0831 26.1165 8.7271 23.3373 9.67393 20.8916C10.6388 18.3317 12.1511 16.0135 14.1053 14.099C16.0187 12.1499 18.3342 10.6416 20.8903 9.67913C23.3359 8.73229 26.1151 8.08829 30.1976 7.89663C31.2173 7.85063 32.0683 7.81229 32.9269 7.78163L33.6706 7.75863C36.4658 7.69052 39.2619 7.66113 42.0579 7.67046L49.9393 7.66663ZM45.9986 26.8333C40.9153 26.8333 36.0402 28.8526 32.4457 32.4471C28.8513 36.0415 26.8319 40.9166 26.8319 46C26.8319 51.0833 28.8513 55.9584 32.4457 59.5528C36.0402 63.1473 40.9153 65.1666 45.9986 65.1666C51.0819 65.1666 55.957 63.1473 59.5515 59.5528C63.1459 55.9584 65.1653 51.0833 65.1653 46C65.1653 40.9166 63.1459 36.0415 59.5515 32.4471C55.957 28.8526 51.0819 26.8333 45.9986 26.8333ZM45.9986 34.5C47.5088 34.4997 49.0043 34.7969 50.3996 35.3746C51.7949 35.9523 53.0628 36.7992 54.1309 37.8669C55.1989 38.9346 56.0462 40.2022 56.6244 41.5973C57.2026 42.9925 57.5003 44.4878 57.5005 45.998C57.5008 47.5082 57.2036 49.0037 56.6259 50.3991C56.0482 51.7944 55.2013 53.0623 54.1336 54.1303C53.0659 55.1984 51.7983 56.0457 50.4031 56.6238C49.008 57.202 47.5126 57.4997 46.0024 57.5C42.9524 57.5 40.0274 56.2884 37.8707 54.1317C35.714 51.975 34.5024 49.05 34.5024 46C34.5024 42.95 35.714 40.0249 37.8707 37.8682C40.0274 35.7116 42.9524 34.5 46.0024 34.5M66.1274 21.0833C64.8566 21.0833 63.6378 21.5881 62.7392 22.4867C61.8406 23.3854 61.3358 24.6041 61.3358 25.875C61.3358 27.1458 61.8406 28.3646 62.7392 29.2632C63.6378 30.1618 64.8566 30.6666 66.1274 30.6666C67.3983 30.6666 68.617 30.1618 69.5157 29.2632C70.4143 28.3646 70.9191 27.1458 70.9191 25.875C70.9191 24.6041 70.4143 23.3854 69.5157 22.4867C68.617 21.5881 67.3983 21.0833 66.1274 21.0833Z" fill="#FEFFEC"/>
</svg>
