<svg width="112" height="112" viewBox="0 0 112 112" fill="none" xmlns="http://www.w3.org/2000/svg">
<path d="M88.6667 14C91.142 14 93.516 14.9833 95.2663 16.7337C97.0167 18.484 98 20.858 98 23.3333V88.6667C98 91.142 97.0167 93.516 95.2663 95.2663C93.516 97.0167 91.142 98 88.6667 98H23.3333C20.858 98 18.484 97.0167 16.7337 95.2663C14.9833 93.516 14 91.142 14 88.6667V23.3333C14 20.858 14.9833 18.484 16.7337 16.7337C18.484 14.9833 20.858 14 23.3333 14H88.6667ZM86.3333 86.3333V61.6C86.3333 57.5652 84.7305 53.6956 81.8774 50.8425C79.0244 47.9895 75.1548 46.3867 71.12 46.3867C67.1533 46.3867 62.5333 48.8133 60.2933 52.4533V47.2733H47.2733V86.3333H60.2933V63.3267C60.2933 59.7333 63.1867 56.7933 66.78 56.7933C68.5127 56.7933 70.1745 57.4817 71.3998 58.7069C72.625 59.9321 73.3133 61.5939 73.3133 63.3267V86.3333H86.3333ZM32.1067 39.9467C34.186 39.9467 36.1801 39.1207 37.6504 37.6504C39.1207 36.1801 39.9467 34.186 39.9467 32.1067C39.9467 27.7667 36.4467 24.22 32.1067 24.22C30.015 24.22 28.009 25.0509 26.53 26.53C25.0509 28.009 24.22 30.015 24.22 32.1067C24.22 36.4467 27.7667 39.9467 32.1067 39.9467ZM38.5933 86.3333V47.2733H25.6667V86.3333H38.5933Z" fill="#FEFFEC"/>
</svg>
