<svg width="32" height="31" viewBox="0 0 32 31" fill="none" xmlns="http://www.w3.org/2000/svg">
<path d="M28.035 0.105469C28.9377 0.105469 29.8034 0.464068 30.4417 1.10238C31.08 1.74069 31.4386 2.60642 31.4386 3.50913V27.3348C31.4386 28.2375 31.08 29.1032 30.4417 29.7415C29.8034 30.3798 28.9377 30.7384 28.035 30.7384H4.20933C3.30662 30.7384 2.44088 30.3798 1.80257 29.7415C1.16426 29.1032 0.805664 28.2375 0.805664 27.3348V3.50913C0.805664 2.60642 1.16426 1.74069 1.80257 1.10238C2.44088 0.464068 3.30662 0.105469 4.20933 0.105469H28.035ZM27.184 26.4839V17.4641C27.184 15.9927 26.5995 14.5816 25.5591 13.5411C24.5186 12.5007 23.1075 11.9162 21.6361 11.9162C20.1895 11.9162 18.5047 12.8011 17.6878 14.1286V12.2395H12.9397V26.4839H17.6878V18.0938C17.6878 16.7834 18.743 15.7113 20.0534 15.7113C20.6853 15.7113 21.2913 15.9623 21.7381 16.4091C22.1849 16.8559 22.4359 17.4619 22.4359 18.0938V26.4839H27.184ZM7.40877 9.56765C8.16704 9.56765 8.89426 9.26643 9.43044 8.73025C9.96662 8.19407 10.2678 7.46685 10.2678 6.70857C10.2678 5.12587 8.99147 3.83248 7.40877 3.83248C6.64598 3.83248 5.91443 4.13549 5.37506 4.67487C4.83569 5.21424 4.53267 5.94579 4.53267 6.70857C4.53267 8.29128 5.82607 9.56765 7.40877 9.56765ZM9.77431 26.4839V12.2395H5.06024V26.4839H9.77431Z" fill="#FEFFEC"/>
</svg>
