<svg width="95" height="92" viewBox="0 0 95 92" fill="none" xmlns="http://www.w3.org/2000/svg">
<path d="M93.3693 8.07678C95.174 6.36808 95.2518 3.5199 93.5431 1.7152C91.8344 -0.0895056 88.9862 -0.167325 87.1815 1.54138L93.3693 8.07678ZM0.00250519 85.8983C-0.0653733 88.3826 1.89357 90.4516 4.37792 90.5195L44.8628 91.6256C47.3472 91.6935 49.4162 89.7346 49.484 87.2502C49.5519 84.7659 47.593 82.6969 45.1086 82.629L9.12205 81.6458L10.1053 45.6592C10.1732 43.1748 8.21423 41.1058 5.72988 41.038C3.24552 40.9701 1.17653 42.929 1.10865 45.4134L0.00250519 85.8983ZM87.1815 1.54138L1.40694 82.7535L7.59471 89.2889L93.3693 8.07678L87.1815 1.54138Z" fill="#110A0A"/>
</svg>
